
<svg width="375px" height="755px" viewBox="0 0 375 755" version="1.1" xmlns="http://www.w3.org/2000/svg" xmlns:xlink="http://www.w3.org/1999/xlink">
    <g id="Page-1" stroke="none" stroke-width="1" fill="none" fill-rule="evenodd">
        <g id="Group">
            <path d="M10,0 L365,0 C370.522847,0 375,5.63375023 375,12.5833333 L375,742.416667 C375,749.36625 370.522847,755 365,755 L10,755 C4.4771525,755 0,749.36625 0,742.416667 L0,12.5833333 C0,5.63375023 4.4771525,0 10,0 Z" id="Rectangle" fill="#E31616"></path>
            <path d="M8,0 L367,0 C371.418278,0 375,3.581722 375,8 L375,106 C375,110.418278 371.418278,114 367,114 L8,114 C3.581722,114 0,110.418278 0,106 L0,8 C0,3.581722 3.581722,0 8,0 Z" id="Rectangle" fill="#BF0000"></path>
            <polygon id="Rectangle" fill="#E31616" points="205 63 375 63 375 120 205 120"></polygon>
            <path d="M96.9134109,123.309725 L194.774282,66.8097253 C208.405621,58.9396676 225.835948,63.6101095 233.706006,77.2414493 C241.576063,90.8727891 236.905621,108.303116 223.274282,116.173173 L125.413411,172.673173 C111.782071,180.543231 94.3517446,175.872789 86.4816869,162.241449 C78.6116292,148.61011 83.2820712,131.179783 96.9134109,123.309725 Z" id="Rectangle" fill="#E31616"></path>
        </g>
        <circle id="Oval" stroke="#C9C9C9" stroke-width="6" fill="#5FA6EB" cx="51.5" cy="50.5" r="32.5"></circle>
        <g id="Group-2" transform="translate(113.000000, 21.000000)" stroke="#403F3F" stroke-width="3">
            <circle id="Oval" fill="#FA1D1D" cx="2" cy="7" r="10"></circle>
            <circle id="Oval" fill="#F4FA1D" cx="35" cy="7" r="10"></circle>
            <circle id="Oval" fill="#1DFA1D" cx="68" cy="7" r="10"></circle>
        </g>
    </g>
</svg>